<svg width="271.379" height="70.882" viewBox="0 0 271.379 70.882" xmlns="http://www.w3.org/2000/svg"><g id="svgGroup" stroke-linecap="round" fill-rule="nonzero" font-size="9pt" stroke="#ffffff" stroke-width="1" fill="#ffffff" style="stroke:#ffffff;stroke-width:1;fill:#ffffff"><path d="M 21.172 49.057 L 13.222 17.557 Q 13.147 17.407 12.997 17.445 Q 12.847 17.482 12.847 17.632 L 12.847 57.307 L 0.022 57.307 L 0.022 11.632 Q 0.022 6.082 3.172 3.045 Q 6.322 0.007 11.047 0.007 A 11.056 11.056 0 0 1 21.839 8.145 A 24.895 24.895 0 0 1 22.672 10.732 L 31.072 41.482 Q 31.147 41.707 31.297 41.707 Q 31.447 41.707 31.522 41.482 L 39.697 10.732 A 16.922 16.922 0 0 1 43.72 3.097 A 11.426 11.426 0 0 1 44.085 2.745 Q 47.047 0.007 51.622 0.007 Q 56.347 0.007 59.46 3.045 Q 62.572 6.082 62.572 11.632 L 62.572 57.307 L 49.822 57.307 L 49.822 17.107 A 0.24 0.24 0 0 0 49.672 16.882 Q 49.522 16.807 49.447 17.032 L 41.422 49.057 Q 40.297 53.632 37.86 56.07 Q 35.422 58.507 31.372 58.507 Q 27.322 58.507 24.847 56.07 Q 22.372 53.632 21.172 49.057 Z M 111.322 38.932 L 81.922 38.932 Q 82.522 43.732 85.072 46.432 Q 87.622 49.132 91.672 49.132 Q 94.972 49.132 97.072 47.52 Q 99.172 45.907 99.697 43.582 L 111.022 43.582 Q 110.272 48.232 107.535 51.57 Q 104.797 54.907 100.597 56.707 Q 96.397 58.507 91.147 58.507 Q 84.622 58.507 79.822 55.77 Q 75.022 53.032 72.36 47.97 Q 69.697 42.907 69.697 36.007 Q 69.697 29.107 72.322 24.082 Q 74.947 19.057 79.71 16.282 Q 84.472 13.507 90.922 13.507 Q 97.597 13.507 102.285 16.507 Q 106.972 19.507 109.335 25.207 A 29.356 29.356 0 0 1 111.363 35.851 Q 111.373 36.31 111.373 36.777 A 46.176 46.176 0 0 1 111.322 38.932 Z M 81.922 31.507 L 99.322 31.507 Q 99.022 26.782 96.547 24.795 Q 94.072 22.807 90.997 22.807 Q 87.322 22.807 84.922 25.17 Q 82.522 27.532 81.922 31.507 Z M 240.247 70.882 L 228.097 70.882 L 228.097 14.632 L 238.372 14.632 L 239.347 20.932 Q 241.522 17.332 245.047 15.42 Q 248.572 13.507 252.622 13.507 Q 258.322 13.507 262.522 16.357 Q 266.722 19.207 269.047 24.232 Q 271.372 29.257 271.372 35.857 A 28.399 28.399 0 0 1 269.856 45.666 A 19.096 19.096 0 0 1 269.647 46.207 Q 267.922 50.482 265.072 53.22 Q 262.222 55.957 258.772 57.232 Q 255.322 58.507 251.947 58.507 Q 248.422 58.507 245.385 57.157 Q 242.347 55.807 240.247 53.182 L 240.247 70.882 Z M 249.397 48.532 Q 253.822 48.532 256.41 45.27 Q 258.997 42.007 258.997 36.382 Q 258.997 30.757 256.41 27.457 Q 253.822 24.157 249.397 24.157 Q 245.197 24.157 242.722 27.457 A 14.079 14.079 0 0 0 240.257 35.688 A 24.598 24.598 0 0 0 240.247 36.382 A 15.27 15.27 0 0 0 242.142 44.417 A 10.087 10.087 0 0 0 242.722 45.27 Q 245.197 48.532 249.397 48.532 Z M 143.872 57.382 L 133.372 57.382 Q 128.122 57.382 124.935 54.195 Q 121.747 51.007 121.747 45.757 L 121.747 24.382 L 114.697 24.382 L 114.697 14.632 L 121.747 14.632 L 121.747 3.382 L 133.897 3.382 L 133.897 14.632 L 142.597 14.632 L 142.597 24.382 L 133.897 24.382 L 133.897 43.657 Q 133.897 45.082 134.797 45.982 Q 135.697 46.882 137.047 46.882 L 143.872 46.882 L 143.872 57.382 Z M 199.972 58.507 Q 193.597 58.507 188.647 55.657 Q 183.697 52.807 180.885 47.745 Q 178.072 42.682 178.072 36.157 Q 178.072 29.482 180.885 24.382 Q 183.697 19.282 188.647 16.395 Q 193.597 13.507 199.972 13.507 Q 206.422 13.507 211.335 16.395 Q 216.247 19.282 219.06 24.382 Q 221.872 29.482 221.872 36.157 Q 221.872 42.682 219.06 47.745 Q 216.247 52.807 211.335 55.657 Q 206.422 58.507 199.972 58.507 Z M 199.972 48.007 Q 204.172 48.007 206.835 44.707 Q 209.497 41.407 209.497 36.157 Q 209.497 30.757 206.835 27.382 Q 204.172 24.007 199.972 24.007 Q 195.772 24.007 193.11 27.382 Q 190.447 30.757 190.447 36.157 Q 190.447 41.407 193.11 44.707 Q 195.772 48.007 199.972 48.007 Z M 161.497 57.382 L 149.347 57.382 L 149.347 32.632 Q 149.347 23.407 154.335 18.457 A 17.736 17.736 0 0 1 165.286 13.681 A 30.717 30.717 0 0 1 168.622 13.507 Q 169.597 13.507 171.697 13.62 Q 173.797 13.732 175.897 14.182 L 175.897 24.607 Q 174.472 24.382 173.197 24.195 Q 171.922 24.007 170.347 24.007 Q 168.022 24.007 165.997 24.682 Q 163.972 25.357 162.735 27.232 A 9.744 9.744 0 0 0 161.498 32.484 A 20.481 20.481 0 0 0 161.497 32.707 L 161.497 57.382 Z"/></g></svg>